<?xml version="1.0" encoding="UTF-8"?>
<svg id="uuid-022d3e07-31f4-49f4-b488-a86df88127b3" data-name="레이어 1" xmlns="http://www.w3.org/2000/svg" viewBox="0 0 127.76 126.45">
  <defs>
    <style>
      .uuid-f80af276-07f7-4f9b-8e55-f8b1e24c1cfc {
        fill: #231815;
      }
    </style>
  </defs>
  <path class="uuid-f80af276-07f7-4f9b-8e55-f8b1e24c1cfc" d="M112.76,126.45h-37.33c-2.21,0-4-1.79-4-4v-29.73h-14.37v29.73c0,2.21-1.79,4-4,4H15c-2.21,0-4-1.79-4-4v-58.77h-7c-1.64,0-3.12-1.01-3.72-2.54-.6-1.53-.21-3.27,1-4.39L61.16,1.07c1.54-1.43,3.91-1.43,5.45,0l59.88,55.68c1.2,1.12,1.6,2.86,1,4.39-.6,1.53-2.08,2.54-3.72,2.54h-7v58.77c0,2.21-1.79,4-4,4Z"/>
</svg>